<!-- https://commons.wikimedia.org/wiki/File:Earth_-_The_Noun_Project.svg -->
<svg xmlns="http://www.w3.org/2000/svg" xmlns:xlink="http://www.w3.org/1999/xlink" version="1.1" x="0px" y="0px"
    viewBox="4.106 5.67 88.622 88.66" enable-background="new 4.106 5.67 88.622 88.66" xml:space="preserve">
    <path fill="#3c8dbc"
        d="M48.417,5.67c-6.721,0-13.088,1.505-18.795,4.184c0.004-0.022,0.014-0.041,0.016-0.064  c-0.576,0.268-1.146,0.548-1.711,0.841c0.029,0.009,0.063,0.012,0.094,0.019c-0.104,0.055-0.211,0.106-0.314,0.162  c-0.01-0.017-0.024-0.027-0.032-0.044c-0.327,0.172-0.653,0.343-0.974,0.523c0.032,0.006,0.061,0.015,0.092,0.021  c-0.342,0.191-0.682,0.385-1.018,0.585c-0.018-0.014-0.036-0.022-0.053-0.037c0.191-0.112,0.379-0.228,0.57-0.337  c-0.193,0.112-0.389,0.223-0.581,0.337c0.001,0.001,0.003,0.002,0.004,0.003c-0.08,0.048-0.161,0.096-0.241,0.144  c0.037-0.004,0.057,0.01,0.089,0.013c-0.173,0.104-0.341,0.214-0.512,0.32c0.012-0.035,0.019-0.066,0.032-0.102  c0,0-0.001,0-0.002,0.001c0-0.001,0.001-0.002,0.001-0.003c-0.031,0.02-0.063,0.041-0.097,0.061  c0.019-0.012,0.037-0.022,0.057-0.033c-0.068,0.043-0.138,0.086-0.207,0.129c0.021-0.014,0.041-0.027,0.062-0.04  c-0.194,0.12-0.39,0.241-0.582,0.365c0.128-0.082,0.258-0.161,0.387-0.24c-0.129,0.082-0.256,0.166-0.385,0.25  c0,0.024,0.005,0.053,0.006,0.078c-0.012,0.008-0.024,0.016-0.037,0.024c-0.012-0.019-0.02-0.041-0.035-0.058  c0.021-0.014,0.041-0.028,0.062-0.042c0.002-0.004,0-0.008,0-0.011c-0.023,0.015-0.047,0.031-0.071,0.047  c0.003,0.001,0.004,0.005,0.005,0.008c-1.219,0.79-2.399,1.634-3.532,2.538c0.009,0.026,0.024,0.05,0.034,0.074  C10.608,23.51,4.106,35.992,4.106,50c0,24.482,19.839,44.33,44.311,44.33c24.472,0,44.312-19.848,44.312-44.33  C92.729,25.517,72.889,5.67,48.417,5.67z M80.229,20.456c0.045,0.075,0.098,0.142,0.139,0.219c-1.158,0.338-1.061-0.576-2.047-0.408  c0.414,0.715,0.709,2.192,1.637,1.227c0.082,0.546,0.561,0.174,0.996-0.234c6.285,7.116,10.279,16.303,10.814,26.412  c-0.531,0-1.061,0-1.588,0c2.58,4.011-2.924,5.74-5.316,7.363c0.729,1.693,2.34-0.518,3.271,0.408  c-0.402,4.1-3.299,5.697-5.316,8.182c0.102,3.109,0.217,3.945,0,6.953c-4.158,2.84-4.428,11.6-11.043,10.633  c-1.096-2.994-1.139-7.043-2.455-9.816c2.725-3.924-1.109-6.549-0.818-11.451c-0.549-0.678-2.146-0.305-2.045-1.637  c-2.551,0.881-4.385,0.521-6.953,0.818c-1.842-1.021-2.58-3.146-4.09-4.498c1.379-3.963-0.869-8.164,3.682-9.817  c-0.219-4.865,7.52-5.636,10.633-4.498c0,0.545,0,1.09,0,1.635c1.605,0.306,2.367,1.453,3.682,2.045  c-0.068-1.024,0.631-1.281,1.229-1.637c1.248,0.793,0.939,1.918,2.863,1.229c0.719,0.234,2.402-0.495,2.453,0.409  c0.607-0.347,0.592-1.317,0.818-2.046c-0.375-1.396-2.518-1.027-3.684-1.635c-0.559-0.522-0.559-1.932,0-2.455  c-2.604-0.19-0.42,1.975-2.043,2.455c-0.273,0-0.545,0-0.818,0c0.352-1.306-0.643-1.265-0.818-2.045  c-1.217-0.101-1.553,2.771-2.861,1.227c2.91-0.479-1.648-4.118-2.045-2.454c-0.07-0.612,0.146-1.509-0.41-1.636  c-1.453,0.453-2.395,1.422-3.682,2.045c0,0.545,0,1.091,0,1.636c-0.361,0.183-0.73,0.36-0.816,0.817c-1.229,0-2.455,0-3.684,0  c-0.02-0.522-0.521-0.566-0.408-1.229c0.602-0.898-0.047-3.047,1.229-3.271c1.176-0.57,2.078,1.115,2.453,0c0.139,0,0.271,0,0.41,0  c0.182-1.543-0.809-1.92-1.229-2.862c0.045-0.772,1.354-0.284,1.229-1.228c3.486-0.193,3.588-3.774,5.727-5.316  c-0.344,0.475-0.541,1.096-0.408,2.044c1.506,0.376,0.742-2.157,0.408-2.454c-0.949-0.13-1.57,0.065-2.045,0.41  c-0.568-0.524-0.25-1.931-0.818-2.456c2.586-2.321,3.361-6.455,7.771-6.952c1.316,0.323,2.502,0.776,3.52,1.399  C78.609,18.774,79.434,19.6,80.229,20.456z M61.955,25.176c2.131,0.459,1.541,3.642,3.273,4.499c0,0.271,0,0.545,0,0.818  c-0.984-0.167-0.889,0.748-2.045,0.41c-0.773-0.092-0.902,0.459-1.635,0.408C63.203,29.135,61.076,27.336,61.955,25.176z   M61.549,30.083c-0.684,0-1.363,0-2.047,0c-0.162-1.525,0.328-2.4,1.637-2.454C61.611,28.113,61.602,29.076,61.549,30.083z   M55.004,21.495c-0.361-0.864-1.246-1.209-1.229-2.454c1.637,0.401,2.457,0.401,4.092,0c0.078,0.331,0.412,0.408,0.408,0.817  C58.219,21.438,56.678,21.534,55.004,21.495z M52.549,23.949c-0.627,1.69-2.622,2.012-4.089,2.862c-0.464-0.076-0.229-0.41,0-0.408  c-0.062-0.756-1.385-0.252-1.637-0.818C46.412,20.586,52.996,19.426,52.549,23.949z M83.635,75.076  c-1.025-3.143,1.238-4.395,2.453-6.953c1.209,0.971-0.492,2.475-0.408,3.68c-0.441,0.758-0.992,1.41-1.209,2.396  c-0.016,0.021-0.029,0.045-0.045,0.068C83.99,74.363,83.811,74.717,83.635,75.076z M55.08,7.075c-0.027,0.035-0.039,0.062-0.074,0.1  c0.258,0.053,0.564,0.056,0.885,0.045c0.686,0.119,1.365,0.253,2.039,0.404c-0.66,0.301-0.838,1.085-1.693,1.187  c-0.297,1.25,0.416,1.491,0.406,2.454c-0.703,0.161-1.049-0.606-1.227,0c1.404,1.81-2.008,3.385,0,4.908  c-2.979,1.521-7.176,1.823-8.999,4.499c-0.884,1.023-1.29,2.527-2.454,3.271c-2.918-0.84-3.482-5.656-2.604-7.504  c0.084-0.061,0.144-0.146,0.146-0.263c-0.053,0.079-0.101,0.167-0.146,0.262c-0.215,0.151-0.596,0.103-0.668-0.266  c1.918-5.429-4.68-3.837-5.727-6.953c0.682-0.545,2.604,0.149,2.454-1.227C37.36,8,37.309,8.015,37.25,8.022  c3.563-0.946,7.304-1.457,11.164-1.457C50.682,6.565,52.906,6.74,55.08,7.075z M28.014,11.658c0.828,0.27,1.514,0.427,2.448-0.388  c-0.534-0.032-1.171,0.038-1.708,0.009c1.929-0.982,3.939-1.824,6.021-2.513c-1.586,0.821-2.635,2.179-3.491,3.729  c-1.911,0.186-3.4,0.375-4.607-0.085C27.12,12.152,27.563,11.898,28.014,11.658z M26.051,12.769  c0.092,0.197,0.266,0.312,0.733,0.133c-0.435,0.927-1.24,1.486-2.454,1.636c0.304-0.4,0.436-0.716,0.504-0.999  C25.237,13.278,25.639,13.016,26.051,12.769z M21.321,16.074c0.049,0.034,0.096,0.071,0.146,0.101  c-0.097,1.128-1.52,0.934-2.044,1.637c2.743,0.813,2.856-2.451,4.499-0.41c0.168-0.984-0.747-0.889-0.408-2.043  c0.522-0.022,0.566-0.525,1.228-0.409c0.2,2.331,1.526,1.28,2.044,2.862c0.087-0.459,0.454-0.638,0.818-0.817  c0.435-1.525-1.535-0.647-1.227-2.045c0.057-2.262,3.453-1.182,4.908-2.045c0.007,0.676,1.134,0.229,1.227,0.818  c-0.537-0.053-2.959-0.062-1.636,0.409c4.175-0.328,4.11,2.779,6.544,4.909c-0.804-0.123-0.812,0.552-1.229,0.816  c-0.543,0.062-1.233-1.662-1.635-0.407c0.895,0.06,0.879,1.03,0.817,2.045c-2.028-0.667-0.231,0.049-1.228,0.817  c-1.527-0.791-2.703-1.933-4.5-2.455c1.004-0.358,2.358-0.367,2.455-1.635c0.304-1.26-1.125-0.785-0.818-2.045  c-0.6,0.004-3.348-0.154-2.045,0.41c0.336,1.834-1.174,1.826-1.637,2.863c0.6,0.355,1.297,0.613,1.228,1.636  c-0.329-0.216-0.664-0.426-1.228-0.409c-0.515,0.102-0.412,0.814,0,0.818c-0.074,0.691-1.943-0.189-1.637-1.227  c-1.938,0.65-2.891,2.289-4.089,3.681c0.351,1.558,1.907,1.911,3.271,2.454c0.33,0.217,0.666,0.427,1.229,0.408  c-0.296,1.251,0.418,1.49,0.408,2.454c1.395-3.288,2.595-2.441,2.455-7.771c0.348,0.074,0.386-0.16,0.408-0.409  c0.402-0.035,0.972,1.08,2.455,0.817c1.039,0.324,0.221,2.506,1.635,2.455c1.324,0.506,0.312-1.323,1.637-0.819  c1.281,3.818,3.506,5.762,4.09,9.408c-1.25,0.296-1.49-0.418-2.453-0.408c-1.43,0.365-0.699-1.334-0.41-1.637  c0.588-0.229,0.998-0.639,1.228-1.228c-1.542,0.388-2.771,2.538-4.09,0.818c0.338,1.155-0.576,1.06-0.409,2.045  c-0.076,0.348,0.159,0.386,0.409,0.409c0.317,0.091,0.808,0.01,0.817,0.408c0,0.138,0,0.272,0,0.41  c-1.945,1.258-7.017,2.709-7.771,7.362c-1.199,0.026-1.519,0.935-2.044,1.636c-0.867,0.365,0.809,2.861-0.41,3.682  c-0.989-0.512-1.322-1.678-1.637-2.863c-3.719-2.158-10.463,4.661-4.09,6.136c0.137,0,0.273,0,0.41,0  c-0.148-1.297,2.244-1.832,2.452-0.409c-0.606,0.348-0.879,1.028-0.817,2.043c-0.069,0.889,1.451,0.188,2.045,0.41  c-0.115,1.812-0.868,3.379,1.227,3.68c0.318,0.092,0.809,0.012,0.819,0.41c1.606-0.166,1.747-1.797,3.272-2.045  c0.916,0.85,2.641,1.199,5.316,1.227c0.574,2.562,3.68,2.592,5.316,4.092c0,0.68,0,1.361,0,2.045c2.922,0.76,5.078,2.285,7.771,3.27  c-0.385,3.844-2.917,5.537-2.861,9.818c-1.1,0.539-2.176,1.098-3.273,1.635c-0.379,2.689-2.146,5.939-4.5,5.316  c-0.167,0.986,0.748,0.889,0.408,2.047c-4.189,1.184-3.257,3.732-3.928,7.059c-1.065-0.428-2.11-0.893-3.133-1.4  c-1.623-3.189,1.092-9.072,0.112-14.887c-0.763-4.531-7.209-7.143-6.065-12.537c0.729-0.889,1.577-1.658,2.021-2.832  c-2.943-4.334-8.721-5.838-12.94-8.896c0.118-2.275-0.71-3.604-2.022-4.448c0.068,1.146,0.742,1.685,0.811,2.83  c-2.847-2.78-3.883-7.165-4.004-11.327C9.67,28.554,14.706,21.369,21.321,16.074z M29.645,49.717  c0.141,1.755-1.49,1.105-2.453,0.818C27.567,49.82,28.469,49.631,29.645,49.717z M22.283,48.08c1.108-1.787,3.901,0.715,4.909,1.638  C24.965,49.761,24.634,47.909,22.283,48.08z">
    </path>
</svg>